<?xml version="1.0" encoding="utf-8"?>
<!-- Generator: Adobe Illustrator 24.1.2, SVG Export Plug-In . SVG Version: 6.00 Build 0)  -->
<svg version="1.1" id="Capa_1" xmlns="http://www.w3.org/2000/svg" xmlns:xlink="http://www.w3.org/1999/xlink" x="0px" y="0px"
	 viewBox="0 0 549.9 151.9" style="enable-background:new 0 0 549.9 151.9;" xml:space="preserve">
<style type="text/css">
	.st0{fill:#393B50;}
	.st1{opacity:0.9;fill:#EAA79F;}
	.st2{fill:none;stroke:#FFFFFF;stroke-width:3;stroke-miterlimit:10;}
	.st3{fill:#D1A3A3;}
	.st4{fill:#FFFFFF;}
	.st5{fill:#848484;}
	.st6{fill:#EAA79F;}
	.st7{fill:#C7C7C7;}
	.st8{clip-path:url(#SVGID_8_);}
	.st9{opacity:0.5;clip-path:url(#SVGID_10_);}
	.st10{opacity:0.5;}
	.st11{clip-path:url(#SVGID_8_);fill:#393B50;}
	.st12{opacity:0.7;fill:#EAA79F;}
	.st13{fill:none;stroke:#FFFFFF;stroke-width:2;stroke-miterlimit:10;}
	.st14{fill-rule:evenodd;clip-rule:evenodd;fill:#FFFFFF;}
	.st15{opacity:0.4;}
	.st16{fill:none;stroke:#EDCBC8;stroke-width:3;stroke-miterlimit:10;}
	.st17{fill:#F2F2F2;}
	.st18{clip-path:url(#SVGID_14_);}
	.st19{filter:url(#Adobe_OpacityMaskFilter);}
	.st20{filter:url(#Adobe_OpacityMaskFilter_1_);}
	.st21{filter:url(#Adobe_OpacityMaskFilter_2_);}
	.st22{filter:url(#Adobe_OpacityMaskFilter_3_);}
	.st23{opacity:0.2;fill:#EAA79F;}
	.st24{clip-path:url(#SVGID_16_);}
	.st25{opacity:0.5;clip-path:url(#SVGID_18_);}
	.st26{clip-path:url(#SVGID_16_);fill:#A8A8A8;}
	.st27{fill:#A5A5A5;}
	.st28{clip-path:url(#SVGID_22_);}
	.st29{filter:url(#Adobe_OpacityMaskFilter_4_);}
	.st30{filter:url(#Adobe_OpacityMaskFilter_5_);}
	.st31{filter:url(#Adobe_OpacityMaskFilter_6_);}
	.st32{filter:url(#Adobe_OpacityMaskFilter_7_);}
	.st33{fill:#D7D8E2;}
	.st34{fill:#FFDDD4;}
	.st35{fill:#F4F4F4;}
	.st36{fill:#F77A7D;}
	.st37{opacity:0.2;}
	.st38{fill:none;stroke:#FFFFFF;stroke-width:3.4646;stroke-linecap:round;stroke-linejoin:round;stroke-miterlimit:10;}
	.st39{fill:none;stroke:#FFFFFF;stroke-width:4.9497;stroke-linecap:round;stroke-linejoin:round;stroke-miterlimit:10;}
	.st40{fill:none;stroke:#FFFFFF;stroke-width:1.6439;stroke-miterlimit:10;}
	.st41{fill:#EAA79F;stroke:#FFFFFF;stroke-miterlimit:10;}
	.st42{fill:#FFFFFF;stroke:#EAA79F;stroke-miterlimit:10;}
	.st43{fill:#FFFFFF;stroke:#EAA79F;stroke-width:1.2078;stroke-miterlimit:10;}
	.st44{fill:#FFFFFF;stroke:#EAA79F;stroke-width:1.1558;stroke-miterlimit:10;}
	.st45{opacity:0.3;fill:#EAA79F;}
	.st46{opacity:0.3;fill:none;stroke:#EAA79F;stroke-width:3.0544;stroke-miterlimit:10;}
	.st47{fill:#F5D3CF;}
	.st48{opacity:0.3;fill:#FFFFFF;}
	.st49{fill:none;}
	.st50{fill:none;stroke:#EAA79F;stroke-width:6.0138;stroke-linecap:round;stroke-miterlimit:10;}
	.st51{fill:none;stroke:#AFAFAF;stroke-width:1.1948;stroke-miterlimit:10;}
	.st52{fill:none;stroke:#AFAFAF;stroke-width:0.75;stroke-miterlimit:10;}
	.st53{fill:none;stroke:#EAA79F;stroke-width:1.2171;stroke-miterlimit:10;}
	.st54{fill:none;stroke:#FFFFFF;stroke-width:1.2171;stroke-miterlimit:10;}
	.st55{fill:#FFFFFF;stroke:#EAA79F;stroke-width:2.4628;stroke-miterlimit:10;}
	.st56{fill:#9A9AA0;}
	.st57{fill:none;stroke:#FFFFFF;stroke-width:0.5353;stroke-miterlimit:10;}
	.st58{opacity:0.5;fill:none;stroke:#393B50;stroke-width:0.6342;stroke-miterlimit:10;}
	.st59{fill:#EAA79F;stroke:#FFFFFF;stroke-width:2.2734;stroke-miterlimit:10;}
	.st60{fill:none;stroke:#FFFFFF;stroke-width:1.5793;stroke-miterlimit:10;}
	.st61{fill:#FFFFFF;stroke:#AFAFAF;stroke-width:0.5353;stroke-miterlimit:10;}
	.st62{fill:#FFFFFF;stroke:#AFAFAF;stroke-width:0.8942;stroke-miterlimit:10;}
	.st63{fill:#F5D3CF;stroke:#FFFFFF;stroke-width:2.2734;stroke-miterlimit:10;}
	.st64{fill:none;stroke:#AFAFAF;stroke-width:0.8942;stroke-miterlimit:10;}
	.st65{fill:#EAA79F;stroke:#FFFFFF;stroke-width:1.2734;stroke-miterlimit:10;}
	.st66{fill:none;stroke:#EAA79F;stroke-width:6.0138;stroke-linecap:round;stroke-linejoin:round;stroke-miterlimit:10;}
</style>
<g>
	<g>
		<g>
			<g>
				<g>
					<polygon class="st4" points="277.3,25.3 264.6,65.6 295.4,25.3 					"/>
				</g>
			</g>
		</g>
		<g>
			<g>
				<g>
					<polygon class="st4" points="237,11.1 227.2,22.8 243.8,22.8 					"/>
				</g>
			</g>
		</g>
		<g>
			<g>
				<g>
					<polygon class="st4" points="285.5,11.1 278.6,22.8 295.2,22.8 					"/>
				</g>
			</g>
		</g>
		<g>
			<g>
				<g>
					<polygon class="st4" points="245.1,25.3 227.1,25.3 257.8,65.6 					"/>
				</g>
			</g>
		</g>
		<g>
			<g>
				<g>
					<polygon class="st4" points="264.3,10.1 276.1,22 283.1,10.1 					"/>
				</g>
			</g>
		</g>
		<g>
			<g>
				<g>
					<polygon class="st4" points="239.4,10.1 246.3,22 258.2,10.1 					"/>
				</g>
			</g>
		</g>
		<g>
			<g>
				<g>
					<polygon class="st4" points="247.8,25.3 261.2,67.9 274.7,25.3 					"/>
				</g>
			</g>
		</g>
		<g>
			<g>
				<g>
					<polygon class="st4" points="261.2,10.6 249.1,22.8 273.4,22.8 					"/>
				</g>
			</g>
		</g>
	</g>
	<g>
		<path class="st4" d="M15.3,129.2V68.6h25.3c6.5,0,11.6,1.3,15.3,4c3.7,2.7,5.5,6.5,5.5,11.5c0,3.3-0.8,6.1-2.3,8.3
			c-1.6,2.2-3.7,3.9-6.4,5.1c-2.7,1.1-5.8,1.7-9.2,1.7l1.6-1.7c4.2,0,7.7,0.6,10.6,1.8c2.9,1.2,5.2,3,6.7,5.3
			c1.5,2.3,2.3,5.2,2.3,8.7c0,5.1-1.8,9-5.5,11.8c-3.7,2.8-9.3,4.2-16.8,4.2H15.3z M19.7,125.4h22.6c5.8,0,10.3-1,13.3-3
			c3.1-2,4.6-5.2,4.6-9.6c0-4.3-1.5-7.5-4.6-9.5c-3.1-2-7.5-3-13.3-3H19.1v-3.8h21.2c5.2,0,9.3-1,12.2-3c2.9-2,4.3-5,4.3-9.1
			c0-4-1.4-7-4.3-9c-2.9-2-7-3-12.2-3H19.7V125.4z"/>
		<path class="st4" d="M94.7,129.5c-4.6,0-8.6-1-12.1-2.9c-3.5-2-6.2-4.7-8.2-8.1c-2-3.5-3-7.4-3-11.9c0-4.5,0.9-8.5,2.8-11.9
			c1.9-3.4,4.5-6.1,7.7-8.1c3.3-2,7-2.9,11.1-2.9c4.1,0,7.8,1,11,2.9c3.3,1.9,5.8,4.6,7.7,8c1.9,3.4,2.8,7.4,2.8,11.9
			c0,0.2,0,0.4,0,0.6c0,0.2,0,0.4,0,0.6H74.6v-3.4h37.5l-1.7,1.6c0.1-3.5-0.7-6.7-2.2-9.5c-1.5-2.8-3.6-5-6.2-6.6
			c-2.6-1.6-5.6-2.4-9-2.4c-3.3,0-6.3,0.8-9,2.4c-2.6,1.6-4.7,3.8-6.2,6.6c-1.5,2.8-2.2,6-2.2,9.6v0.8c0,3.7,0.8,7,2.5,9.8
			c1.6,2.9,3.9,5.1,6.8,6.7c2.9,1.6,6.2,2.4,9.9,2.4c2.9,0,5.6-0.5,8.1-1.6c2.5-1,4.6-2.6,6.4-4.8l2.5,2.9c-2,2.4-4.4,4.3-7.4,5.5
			C101.3,128.9,98.1,129.5,94.7,129.5z"/>
		<path class="st4" d="M136.3,129.5c-3.3,0-6.2-0.5-8.7-1.6c-2.5-1.1-4.3-2.6-5.6-4.5c-1.3-2-1.9-4.2-1.9-6.7c0-2.3,0.5-4.4,1.6-6.3
			c1.1-1.9,2.8-3.4,5.3-4.6c2.5-1.2,5.8-1.8,9.9-1.8h16.6v3.4H137c-4.7,0-7.9,0.9-9.8,2.6c-1.9,1.7-2.8,3.9-2.8,6.5
			c0,2.9,1.1,5.2,3.3,6.9c2.2,1.7,5.3,2.6,9.3,2.6c3.8,0,7-0.9,9.6-2.6c2.6-1.7,4.6-4.2,5.8-7.5l1.2,2.9c-1.2,3.3-3.3,5.9-6.2,7.8
			C144.5,128.6,140.8,129.5,136.3,129.5z M152.5,129.2v-10.3l-0.2-1.6v-17c0-4.2-1.1-7.4-3.4-9.6c-2.3-2.2-5.6-3.3-10-3.3
			c-3.1,0-6,0.5-8.7,1.6c-2.7,1.1-5,2.4-6.9,4.1l-2.2-3.1c2.2-2,5-3.6,8.1-4.7c3.2-1.1,6.5-1.7,9.9-1.7c5.6,0,9.9,1.4,12.9,4.2
			c3,2.8,4.5,7,4.5,12.6v28.6H152.5z"/>
		<path class="st4" d="M190.3,129.5c-3.9,0-7.2-0.7-10-2.1c-2.8-1.4-5-3.5-6.5-6.4c-1.5-2.9-2.3-6.4-2.3-10.6V84h4.3v26
			c0,5.1,1.3,8.9,3.9,11.6c2.6,2.7,6.3,4,11,4c3.4,0,6.3-0.7,8.8-2.2c2.5-1.4,4.4-3.5,5.7-6.1c1.3-2.6,2-5.7,2-9.3V84h4.3v45.2h-4.2
			v-12.5l0.6,1.5c-1.3,3.5-3.5,6.3-6.6,8.3C198.2,128.5,194.5,129.5,190.3,129.5z"/>
		<path class="st4" d="M219.8,87.8V84h27v3.7H219.8z M240.4,129.5c-4,0-7-1.1-9.1-3.3c-2.1-2.2-3.2-5.2-3.2-9V74.2h4.3v42.7
			c0,2.9,0.7,5.1,2.2,6.7c1.4,1.6,3.5,2.3,6.2,2.3c2.8,0,5.2-0.8,7-2.5l1.8,3c-1.2,1.1-2.6,1.9-4.2,2.4
			C243.8,129.3,242.1,129.5,240.4,129.5z"/>
		<path class="st4" d="M259,129.2V84h4.3v45.2H259z"/>
		<path class="st4" d="M301.1,83.7c3.7,0,6.9,0.7,9.6,2.1c2.7,1.4,4.9,3.5,6.4,6.4c1.5,2.9,2.3,6.4,2.3,10.6v26.4h-4.3v-26
			c0-5.1-1.3-8.9-3.9-11.6c-2.6-2.7-6.2-4-10.8-4c-3.5,0-6.6,0.7-9.2,2.2c-2.6,1.4-4.6,3.5-5.9,6.1c-1.4,2.6-2,5.7-2,9.3v24.1H279
			V84h4.2v12.5l-0.6-1.4c1.4-3.6,3.7-6.4,6.8-8.4C292.6,84.7,296.5,83.7,301.1,83.7z"/>
		<path class="st4" d="M352.2,127.5c-4.3,0-8.1-0.9-11.5-2.8c-3.4-1.9-6.1-4.5-8-7.8c-2-3.3-3-7.1-3-11.4c0-4.3,1-8.1,3-11.4
			c2-3.3,4.7-5.9,8-7.7c3.4-1.8,7.2-2.8,11.5-2.8c4.1,0,7.8,0.9,11,2.6c3.3,1.8,5.8,4.3,7.7,7.5c1.9,3.3,2.9,7.2,2.9,11.7
			c0,4.5-1,8.4-2.9,11.7c-1.9,3.3-4.5,5.8-7.7,7.6C360,126.7,356.3,127.5,352.2,127.5z M353.4,146.3c-4.1,0-8-0.6-11.7-1.9
			c-3.7-1.3-6.7-3-9-5.3l2.3-3.3c2.2,2.1,4.9,3.7,8.1,4.8c3.1,1.2,6.5,1.7,10.2,1.7c6.1,0,10.5-1.4,13.4-4.2
			c2.9-2.8,4.3-7.3,4.3-13.3v-12.5l0.9-6.7l-0.7-6.7V84h4.2v40.3c0,7.6-1.8,13.1-5.5,16.7C366.2,144.5,360.7,146.3,353.4,146.3z
			 M352.6,123.7c3.6,0,6.8-0.8,9.6-2.3c2.8-1.5,4.9-3.7,6.5-6.4c1.6-2.7,2.4-5.9,2.4-9.4c0-3.6-0.8-6.7-2.4-9.4
			c-1.6-2.7-3.8-4.8-6.5-6.3c-2.8-1.5-6-2.2-9.6-2.2c-3.5,0-6.7,0.8-9.5,2.2c-2.8,1.5-5,3.6-6.6,6.3c-1.6,2.7-2.4,5.9-2.4,9.4
			c0,3.5,0.8,6.6,2.4,9.4c1.6,2.7,3.8,4.9,6.6,6.4C345.9,122.9,349,123.7,352.6,123.7z"/>
		<path class="st4" d="M390.5,129.5c-1,0-1.8-0.4-2.6-1.1c-0.7-0.7-1.1-1.6-1.1-2.6c0-1,0.4-1.9,1.1-2.6c0.7-0.7,1.6-1,2.6-1
			c1,0,1.8,0.3,2.6,1c0.7,0.7,1.1,1.6,1.1,2.6c0,1-0.4,1.9-1.1,2.6C392.4,129.2,391.5,129.5,390.5,129.5z"/>
		<path class="st4" d="M462,83.7c3.6,0,6.8,0.7,9.5,2.1c2.7,1.4,4.8,3.5,6.3,6.4c1.5,2.9,2.2,6.4,2.2,10.6v26.4h-4.3v-26
			c0-5.1-1.2-8.9-3.7-11.6c-2.5-2.7-5.9-4-10.4-4c-3.4,0-6.3,0.7-8.8,2.2c-2.5,1.4-4.4,3.5-5.7,6.1c-1.3,2.6-2,5.7-2,9.3v24.1h-4.3
			v-26c0-5.1-1.2-8.9-3.7-11.6c-2.5-2.7-5.9-4-10.4-4c-3.4,0-6.3,0.7-8.8,2.2c-2.5,1.4-4.4,3.5-5.7,6.1c-1.3,2.6-2,5.7-2,9.3v24.1
			h-4.3V84h4.2v12.5l-0.6-1.4c1.3-3.5,3.5-6.3,6.7-8.3c3.1-2,6.9-3.1,11.2-3.1c4.5,0,8.3,1.1,11.4,3.4c3.1,2.3,5,5.7,5.8,10.2
			l-1.5-0.6c1.2-3.9,3.5-7,6.8-9.4C453.2,84.9,457.2,83.7,462,83.7z"/>
		<path class="st4" d="M513.6,129.5c-4.6,0-8.6-1-12.1-2.9c-3.5-2-6.2-4.7-8.2-8.1c-2-3.5-3-7.4-3-11.9c0-4.5,0.9-8.5,2.8-11.9
			c1.9-3.4,4.5-6.1,7.7-8.1c3.3-2,7-2.9,11.1-2.9c4.1,0,7.8,1,11,2.9c3.3,1.9,5.8,4.6,7.7,8c1.9,3.4,2.8,7.4,2.8,11.9
			c0,0.2,0,0.4,0,0.6c0,0.2,0,0.4,0,0.6h-39.9v-3.4H531l-1.7,1.6c0.1-3.5-0.7-6.7-2.2-9.5c-1.5-2.8-3.6-5-6.2-6.6
			c-2.6-1.6-5.6-2.4-9-2.4c-3.3,0-6.3,0.8-9,2.4c-2.6,1.6-4.7,3.8-6.2,6.6c-1.5,2.8-2.2,6-2.2,9.6v0.8c0,3.7,0.8,7,2.5,9.8
			c1.6,2.9,3.9,5.1,6.8,6.7c2.9,1.6,6.2,2.4,9.9,2.4c2.9,0,5.6-0.5,8.1-1.6c2.5-1,4.6-2.6,6.4-4.8l2.5,2.9c-2,2.4-4.4,4.3-7.4,5.5
			C520.2,128.9,517,129.5,513.6,129.5z"/>
	</g>
</g>
</svg>
